<svg width="192" height="192" viewBox="0 0 192 192" fill="none" xmlns="http://www.w3.org/2000/svg">
    <rect width="192" height="192" rx="48" fill="#4f46e5"/>
    <svg x="32" y="32" width="128" height="128" viewBox="0 0 24 24" fill="none" xmlns="http://www.w3.org/2000/svg">
        <path stroke-linecap="round" stroke-linejoin="round" d="M21 12a2.25 2.25 0 0 0-2.25-2.25H5.25A2.25 2.25 0 0 0 3 12m18 0v6a2.25 2.25 0 0 1-2.25-2.25H5.25A2.25 2.25 0 0 1 3 18v-6m18 0V9M3 12V9m18 3a2.25 2.25 0 0 0-2.25-2.25H5.25A2.25 2.25 0 0 0 3 12m15.75 0-3.75-3.75" stroke="white" stroke-width="1.5"/>
    </svg>
</svg>